<svg xmlns="http://www.w3.org/2000/svg" viewBox="0 0 140 140"><defs><style>.cls-1{fill:#f76531;}.cls-2{fill:#fff;}</style></defs><title>33д</title><g id="Слой_2" data-name="Слой 2"><g id="условия_оплаты" data-name="условия оплаты"><g id="_33д" data-name="33д"><rect class="cls-1" width="140" height="140" rx="70" ry="70"/><path class="cls-2" d="M92,72.58a9.26,9.26,0,1,0,9.26,9.26A9.27,9.27,0,0,0,92,72.58ZM92,89.5a7.66,7.66,0,1,1,7.66-7.66A7.68,7.68,0,0,1,92,89.5Z"/><path class="cls-2" d="M92.13,77H90v9.41h1.48V82.89h.69c1.48,0,2.21-.82,2.21-2.33V79.34C94.34,77.83,93.61,77,92.13,77Zm.73,3.65c0,.67-.26.88-.73.88h-.69V78.36h.69c.47,0,.73.21.73.88Z"/><path class="cls-2" d="M63.68,86.14v-7h-19v7ZM46.25,80.77H62.08v3.77H46.25Z"/><path class="cls-2" d="M40.38,85.54V68.42H99.26V72.1h1.6V66.82H38.78V85.54a5.29,5.29,0,0,0,5.28,5.28H81v-1.6h-37A3.68,3.68,0,0,1,40.38,85.54Z"/><path class="cls-2" d="M100.86,54.18a5.28,5.28,0,0,0-5.28-5.28H44.06a5.29,5.29,0,0,0-5.28,5.28v4.16h62.08Zm-1.6,2.56H40.38V54.18a3.68,3.68,0,0,1,3.68-3.68H95.58a3.68,3.68,0,0,1,3.68,3.68Z"/></g></g></g></svg>