<svg xmlns="http://www.w3.org/2000/svg" viewBox="0 0 140 140"><defs><style>.cls-1{fill:#f76531;}.cls-2{fill:#fff;}</style></defs><title>32д (2)</title><g id="Слой_2" data-name="Слой 2"><g id="условия_оплаты" data-name="условия оплаты"><g id="_32д" data-name="32д"><rect class="cls-1" width="140" height="140" rx="70" ry="70"/><path class="cls-2" d="M65.23,96H38a5.29,5.29,0,0,1-5.28-5.28V72h29v1.6H34.34V90.69A3.69,3.69,0,0,0,38,94.37H65.23Z"/><path class="cls-2" d="M57.65,91.29h-19v-7h19Zm-17.43-1.6H56.05V85.92H40.22Z"/><path class="cls-2" d="M76.21,63.49H32.74V59.33A5.29,5.29,0,0,1,38,54.05H73.51v1.6H38a3.69,3.69,0,0,0-3.68,3.68v2.56H76.21Z"/><path class="cls-2" d="M86.3,63.59c-5.18,0-9.39-5.47-9.39-12.19,0-6,1.12-12.2,9.39-12.2s9.38,6.52,9.38,12.2C95.68,58.12,91.47,63.59,86.3,63.59Zm0-22.79c-6.47,0-7.79,4.24-7.79,10.6C78.51,57.24,82,62,86.3,62s7.78-4.75,7.78-10.59C94.08,45,92.76,40.8,86.3,40.8Z"/><path class="cls-2" d="M76.23,51.48l-1-1.28c2.14-1.62,4.94-3.35,11-3.35a17.65,17.65,0,0,1,11,3.35l-1,1.28c-1-.75-4-3-10.07-3C80.71,48.45,78.26,50,76.23,51.48Z"/><path class="cls-2" d="M86.34,71.72c-3.51,0-6.16-2-6.16-4.73V59.65h1.6V67c0,1.79,2,3.13,4.56,3.13s4.57-1.48,4.57-3.31V61h1.6v5.82C92.51,69.57,89.8,71.72,86.34,71.72Z"/><path class="cls-2" d="M99.62,97.5l-1-1.27,7-5.38V82.24c0-2.93-5.9-5.64-14-6.43l.16-1.59c9.39.91,15.47,4.06,15.47,8v9.4Z"/><path class="cls-2" d="M73,97.46l-7.58-5.82V82.57c0-4,6.22-7.34,15.47-8.33l.17,1.59c-8.13.87-14,3.7-14,6.74v8.28l7,5.34Z"/><path class="cls-2" d="M99.88,100.8H72.71v-15H99.88ZM74.31,99.2h24V87.41h-24Z"/><rect class="cls-2" x="66.23" y="90.6" width="6.7" height="1.6"/><rect class="cls-2" x="99.75" y="90.6" width="6.7" height="1.6"/></g></g></g></svg>