<svg xmlns="http://www.w3.org/2000/svg" viewBox="0 0 140 140"><defs><style>.cls-1{fill:#f76531;}.cls-2{fill:#fff;}.cls-3{opacity:0.15;}</style></defs><title>31д</title><g id="Слой_2" data-name="Слой 2"><g id="условия_оплаты" data-name="условия оплаты"><g id="_31д" data-name="31д"><rect class="cls-1" width="140" height="140" rx="70" ry="70"/><path class="cls-2" d="M82.08,85.16H57.92a2.81,2.81,0,0,1-2.8-2.8V56.74H84.88V82.36A2.81,2.81,0,0,1,82.08,85.16ZM56.72,58.34v24a1.2,1.2,0,0,0,1.2,1.2H82.08a1.2,1.2,0,0,0,1.2-1.2v-24Z"/><g class="cls-3"><path class="cls-2" d="M82.08,89.18H57.92a2.81,2.81,0,0,1-2.8-2.8V83.67H84.88v2.71A2.81,2.81,0,0,1,82.08,89.18ZM56.72,85.27v1.11a1.2,1.2,0,0,0,1.2,1.2H82.08a1.2,1.2,0,0,0,1.2-1.2V85.27Z"/></g><g class="cls-3"><path class="cls-2" d="M82.08,93.09H57.92a2.81,2.81,0,0,1-2.8-2.8V87.58H84.88v2.71A2.81,2.81,0,0,1,82.08,93.09ZM56.72,89.18v1.11a1.2,1.2,0,0,0,1.2,1.2H82.08a1.2,1.2,0,0,0,1.2-1.2V89.18Z"/></g><path class="cls-2" d="M82.74,89.18H57.26A2.14,2.14,0,0,1,55.12,87V61.56h1.6V87a.54.54,0,0,0,.54.54H82.74a.54.54,0,0,0,.54-.54V61.56h1.6V87A2.14,2.14,0,0,1,82.74,89.18Z"/><path class="cls-2" d="M82.74,93.2H57.26a2.14,2.14,0,0,1-2.14-2.14V65.59h1.6V91.06a.54.54,0,0,0,.54.54H82.74a.54.54,0,0,0,.54-.54V65.59h1.6V91.06A2.14,2.14,0,0,1,82.74,93.2Z"/><polygon class="cls-2" points="88.84 63.93 84.02 63.93 84.02 62.33 87.25 62.33 87.25 58.34 52.76 58.34 52.76 62.33 55.87 62.33 55.87 63.93 51.16 63.93 51.16 56.74 88.84 56.74 88.84 63.93"/><path class="cls-2" d="M70,67.62A10.09,10.09,0,0,1,59.93,57.54h1.6a8.47,8.47,0,1,0,16.94,0h1.6A10.09,10.09,0,0,1,70,67.62Z"/><path class="cls-2" d="M92.79,71.75H84.13v-1.6h8.66A1.21,1.21,0,0,0,94,68.94V49.61a1.21,1.21,0,0,0-1.21-1.21H47.21A1.21,1.21,0,0,0,46,49.61V68.94a1.21,1.21,0,0,0,1.21,1.21h8.54v1.6H47.21a2.81,2.81,0,0,1-2.81-2.81V49.61a2.81,2.81,0,0,1,2.81-2.81H92.79a2.81,2.81,0,0,1,2.81,2.81V68.94A2.81,2.81,0,0,1,92.79,71.75Z"/><rect class="cls-2" x="59.93" y="74.97" width="1.6" height="4.79"/><rect class="cls-2" x="78.47" y="74.97" width="1.6" height="4.79"/></g></g></g></svg>